<mxfile host="app.diagrams.net" agent="Mozilla/5.0 (Windows NT 10.0; Win64; x64) AppleWebKit/537.36 (KHTML, like Gecko) Chrome/139.0.0.0 Safari/537.36" version="28.1.0">
  <diagram name="Страница — 1" id="wutEzv4rZsYX_1XHgXmE">
    <mxGraphModel dx="1661" dy="858" grid="1" gridSize="10" guides="1" tooltips="1" connect="1" arrows="1" fold="1" page="1" pageScale="1" pageWidth="1654" pageHeight="1169" math="0" shadow="0">
      <root>
        <mxCell id="0" />
        <mxCell id="1" parent="0" />
        <mxCell id="k67vNNfMW5uqdkEVrtX6-1" value="&lt;font face=&quot;Comic Sans MS&quot; style=&quot;font-size: 24px;&quot;&gt;Территория Объекта: КС, Свободы 57Д&lt;/font&gt;" style="whiteSpace=wrap;html=1;aspect=fixed;fillColor=#fa6800;fontColor=#000000;strokeColor=#C73500;" vertex="1" parent="1">
          <mxGeometry x="570" y="465" width="240" height="240" as="geometry" />
        </mxCell>
        <mxCell id="k67vNNfMW5uqdkEVrtX6-5" value="&lt;font face=&quot;Comic Sans MS&quot; style=&quot;font-size: 16px;&quot;&gt;СЕРВЕР&lt;/font&gt;&lt;div&gt;&lt;font face=&quot;Comic Sans MS&quot; style=&quot;font-size: 16px;&quot;&gt;База MySQL&lt;/font&gt;&lt;/div&gt;&lt;div&gt;&lt;font face=&quot;Comic Sans MS&quot; style=&quot;font-size: 16px;&quot;&gt;для хранения&amp;nbsp; информации о посетителях объекта&lt;/font&gt;&lt;/div&gt;&lt;div&gt;&lt;font face=&quot;Comic Sans MS&quot; style=&quot;font-size: 16px;&quot;&gt;Автомобили и пешеходы&lt;/font&gt;&lt;/div&gt;" style="shape=cube;whiteSpace=wrap;html=1;boundedLbl=1;backgroundOutline=1;darkOpacity=0.05;darkOpacity2=0.1;size=20;fillColor=#d0cee2;strokeColor=#56517e;" vertex="1" parent="1">
          <mxGeometry x="920" y="505" width="290" height="200" as="geometry" />
        </mxCell>
        <mxCell id="k67vNNfMW5uqdkEVrtX6-10" value="&lt;font face=&quot;Comic Sans MS&quot; style=&quot;font-size: 17px;&quot;&gt;Клиент + Монитор&lt;/font&gt;&lt;div&gt;&lt;font face=&quot;Comic Sans MS&quot; style=&quot;font-size: 17px;&quot;&gt;Отображение списка планируемых посетителей:&lt;/font&gt;&lt;/div&gt;&lt;div&gt;&lt;font face=&quot;Comic Sans MS&quot; style=&quot;font-size: 17px;&quot;&gt;1. Авто - номер авто, название компании к кому приехал, контактный телефон&lt;/font&gt;&lt;/div&gt;&lt;div&gt;&lt;font face=&quot;Comic Sans MS&quot; style=&quot;font-size: 17px;&quot;&gt;2. Пешеходы - ФИО пешехода, компания к кому пришел, контактный телефон&lt;/font&gt;&lt;/div&gt;" style="shape=cube;whiteSpace=wrap;html=1;boundedLbl=1;backgroundOutline=1;darkOpacity=0.05;darkOpacity2=0.1;fillColor=#76608a;fontColor=#ffffff;strokeColor=#432D57;" vertex="1" parent="1">
          <mxGeometry x="920" y="290" width="420" height="195" as="geometry" />
        </mxCell>
        <mxCell id="k67vNNfMW5uqdkEVrtX6-13" value="&lt;font face=&quot;Comic Sans MS&quot;&gt;Арендатор:&lt;/font&gt;&lt;div&gt;&lt;font face=&quot;Comic Sans MS&quot;&gt;1. Через команды ТГ-бота записывает данные гостя:&lt;/font&gt;&lt;/div&gt;&lt;div&gt;&lt;font face=&quot;Comic Sans MS&quot;&gt;Авто - номер, контактный телефон (может указать свой), (компания подтягивается из БД)&lt;/font&gt;&lt;/div&gt;&lt;div&gt;&lt;font face=&quot;Comic Sans MS&quot;&gt;Пешеход - ФИО пешехода, контактный телефон (может указать свой), (компания подтягивается из БД)&lt;/font&gt;&lt;/div&gt;" style="rounded=0;whiteSpace=wrap;html=1;fillColor=#e51400;fontColor=#ffffff;strokeColor=#B20000;" vertex="1" parent="1">
          <mxGeometry x="570" y="830" width="240" height="150" as="geometry" />
        </mxCell>
        <mxCell id="k67vNNfMW5uqdkEVrtX6-15" value="ТГ-бот, записывает информацию в БД на Сервере и она отображается на Клиенте на КПП №1" style="rounded=1;whiteSpace=wrap;html=1;fillColor=#0050ef;fontColor=#ffffff;strokeColor=#001DBC;fontFamily=Comic Sans MS;" vertex="1" parent="1">
          <mxGeometry x="1240" y="705" width="280" height="85" as="geometry" />
        </mxCell>
        <mxCell id="k67vNNfMW5uqdkEVrtX6-16" value="&lt;font face=&quot;Comic Sans MS&quot; style=&quot;font-size: 21px;&quot;&gt;Телеграм Бот&lt;/font&gt;&lt;div&gt;&lt;br&gt;&lt;/div&gt;" style="rounded=0;whiteSpace=wrap;html=1;fillColor=#0050ef;strokeColor=#001DBC;fontColor=#ffffff;" vertex="1" parent="1">
          <mxGeometry x="920" y="820" width="290" height="150" as="geometry" />
        </mxCell>
        <mxCell id="k67vNNfMW5uqdkEVrtX6-17" value="" style="shape=flexArrow;endArrow=classic;html=1;rounded=0;exitX=1;exitY=0.462;exitDx=0;exitDy=0;fillColor=#fa6800;strokeColor=#C73500;exitPerimeter=0;entryX=0;entryY=0.533;entryDx=0;entryDy=0;entryPerimeter=0;" edge="1" parent="1" source="k67vNNfMW5uqdkEVrtX6-13" target="k67vNNfMW5uqdkEVrtX6-16">
          <mxGeometry width="50" height="50" relative="1" as="geometry">
            <mxPoint x="1010" y="650" as="sourcePoint" />
            <mxPoint x="920" y="890" as="targetPoint" />
          </mxGeometry>
        </mxCell>
        <mxCell id="k67vNNfMW5uqdkEVrtX6-20" value="" style="shape=flexArrow;endArrow=classic;html=1;rounded=0;entryX=0;entryY=0;entryDx=155;entryDy=200;entryPerimeter=0;exitX=0.538;exitY=-0.013;exitDx=0;exitDy=0;exitPerimeter=0;fillColor=#fa6800;strokeColor=#C73500;" edge="1" parent="1" source="k67vNNfMW5uqdkEVrtX6-16" target="k67vNNfMW5uqdkEVrtX6-5">
          <mxGeometry width="50" height="50" relative="1" as="geometry">
            <mxPoint x="1075" y="800" as="sourcePoint" />
            <mxPoint x="1060" y="620" as="targetPoint" />
          </mxGeometry>
        </mxCell>
        <mxCell id="k67vNNfMW5uqdkEVrtX6-21" value="" style="shape=flexArrow;endArrow=classic;html=1;rounded=0;exitX=0;exitY=0.5;exitDx=0;exitDy=0;fillColor=#fa6800;strokeColor=#C73500;" edge="1" parent="1" source="k67vNNfMW5uqdkEVrtX6-15">
          <mxGeometry width="50" height="50" relative="1" as="geometry">
            <mxPoint x="1010" y="670" as="sourcePoint" />
            <mxPoint x="1070" y="748" as="targetPoint" />
          </mxGeometry>
        </mxCell>
        <mxCell id="k67vNNfMW5uqdkEVrtX6-23" value="Информация с БД Сервера дублируется на Клиенте КПП №1, когда контроллер отмечает вход/выход посетителя, то в БД на Сервере делаются отметки об этом" style="rounded=1;whiteSpace=wrap;html=1;fillColor=#0050ef;fontColor=#ffffff;strokeColor=#001DBC;fontFamily=Comic Sans MS;" vertex="1" parent="1">
          <mxGeometry x="1320" y="520" width="230" height="90" as="geometry" />
        </mxCell>
        <mxCell id="k67vNNfMW5uqdkEVrtX6-24" value="" style="shape=flexArrow;endArrow=classic;html=1;rounded=0;exitX=0;exitY=0.5;exitDx=0;exitDy=0;fillColor=#fa6800;strokeColor=#C73500;" edge="1" parent="1" source="k67vNNfMW5uqdkEVrtX6-23">
          <mxGeometry width="50" height="50" relative="1" as="geometry">
            <mxPoint x="1500" y="660" as="sourcePoint" />
            <mxPoint x="1260" y="565" as="targetPoint" />
          </mxGeometry>
        </mxCell>
        <mxCell id="k67vNNfMW5uqdkEVrtX6-26" value="&lt;font style=&quot;font-size: 20px;&quot; face=&quot;Comic Sans MS&quot;&gt;КПП №1&lt;/font&gt;" style="rounded=0;whiteSpace=wrap;html=1;fillColor=#008a00;fontColor=#ffffff;strokeColor=#005700;" vertex="1" parent="1">
          <mxGeometry x="580" y="290" width="230" height="110" as="geometry" />
        </mxCell>
        <mxCell id="k67vNNfMW5uqdkEVrtX6-28" value="Охрана сравнивает информацию о посетителях с их данными (номер машины, документ удостоверяющий личность), делает отметку на Клиенте, что посетитель зашел, потом делает отметку, что посетитель вышел." style="rounded=1;whiteSpace=wrap;html=1;fillColor=#0050ef;fontColor=#ffffff;strokeColor=#001DBC;fontFamily=Comic Sans MS;shadow=1;" vertex="1" parent="1">
          <mxGeometry x="702" y="150" width="250" height="90" as="geometry" />
        </mxCell>
        <mxCell id="k67vNNfMW5uqdkEVrtX6-30" value="" style="shape=flexArrow;endArrow=classic;startArrow=classic;html=1;rounded=0;exitX=0.5;exitY=0;exitDx=0;exitDy=0;entryX=0.157;entryY=0.001;entryDx=0;entryDy=0;entryPerimeter=0;fillColor=#fa6800;strokeColor=#C73500;" edge="1" parent="1" source="k67vNNfMW5uqdkEVrtX6-26" target="k67vNNfMW5uqdkEVrtX6-10">
          <mxGeometry width="100" height="100" relative="1" as="geometry">
            <mxPoint x="880" y="410" as="sourcePoint" />
            <mxPoint x="980" y="490" as="targetPoint" />
            <Array as="points">
              <mxPoint x="830" y="250" />
            </Array>
          </mxGeometry>
        </mxCell>
        <mxCell id="k67vNNfMW5uqdkEVrtX6-32" value="" style="shape=flexArrow;endArrow=classic;startArrow=classic;html=1;rounded=0;exitX=0.5;exitY=0;exitDx=0;exitDy=0;fillColor=#fa6800;strokeColor=#C73500;" edge="1" parent="1" source="k67vNNfMW5uqdkEVrtX6-1">
          <mxGeometry width="100" height="100" relative="1" as="geometry">
            <mxPoint x="880" y="590" as="sourcePoint" />
            <mxPoint x="690" y="400" as="targetPoint" />
          </mxGeometry>
        </mxCell>
        <mxCell id="k67vNNfMW5uqdkEVrtX6-34" value="Вход на территорию осуществляется через контроллера" style="rounded=1;whiteSpace=wrap;html=1;fillColor=#0050ef;fontColor=#ffffff;strokeColor=#001DBC;fontFamily=Comic Sans MS;shadow=1;" vertex="1" parent="1">
          <mxGeometry x="310" y="390" width="250" height="90" as="geometry" />
        </mxCell>
        <mxCell id="k67vNNfMW5uqdkEVrtX6-35" value="" style="shape=flexArrow;endArrow=classic;html=1;rounded=0;exitX=1;exitY=0.5;exitDx=0;exitDy=0;fillColor=#fa6800;strokeColor=#C73500;" edge="1" parent="1" source="k67vNNfMW5uqdkEVrtX6-34">
          <mxGeometry width="50" height="50" relative="1" as="geometry">
            <mxPoint x="900" y="570" as="sourcePoint" />
            <mxPoint x="690" y="435" as="targetPoint" />
          </mxGeometry>
        </mxCell>
        <mxCell id="k67vNNfMW5uqdkEVrtX6-36" value="" style="shape=flexArrow;endArrow=classic;startArrow=classic;html=1;rounded=0;fillColor=#fa6800;strokeColor=#C73500;entryX=0.802;entryY=0.991;entryDx=0;entryDy=0;entryPerimeter=0;exitX=0;exitY=0;exitDx=290;exitDy=110;exitPerimeter=0;" edge="1" parent="1" source="k67vNNfMW5uqdkEVrtX6-5" target="k67vNNfMW5uqdkEVrtX6-10">
          <mxGeometry width="100" height="100" relative="1" as="geometry">
            <mxPoint x="1260" y="680" as="sourcePoint" />
            <mxPoint x="1260" y="540" as="targetPoint" />
            <Array as="points">
              <mxPoint x="1257" y="615" />
            </Array>
          </mxGeometry>
        </mxCell>
      </root>
    </mxGraphModel>
  </diagram>
</mxfile>
